<?xml version="1.0" standalone="no"?>
<!DOCTYPE svg PUBLIC "-//W3C//DTD SVG 20010904//EN"
 "http://www.w3.org/TR/2001/REC-SVG-20010904/DTD/svg10.dtd">
<svg version="1.0" xmlns="http://www.w3.org/2000/svg"
 width="514.000000pt" height="162.000000pt" viewBox="0 0 514.000000 162.000000"
 preserveAspectRatio="xMidYMid meet">

<g transform="translate(0.000000,162.000000) scale(0.100000,-0.100000)"
fill="#000000" stroke="none">
<path d="M1688 1313 c-29 -5 -58 -36 -58 -64 0 -9 -8 -19 -18 -21 -27 -7 -52
-68 -52 -125 0 -59 17 -122 34 -129 8 -3 11 -15 8 -29 -14 -78 171 -116 242
-50 25 23 36 65 17 65 -5 0 -25 -16 -44 -35 -29 -29 -42 -35 -77 -35 -42 0
-79 14 -92 34 -14 20 -8 26 25 26 17 0 39 4 47 10 9 6 17 5 22 -2 11 -20 79 4
102 35 28 38 29 160 3 201 -15 22 -15 26 -3 26 21 0 39 36 31 61 -4 11 -18 24
-32 30 -24 9 -102 10 -155 2z m85 -46 c-6 -29 -88 -53 -98 -29 -9 25 25 52 65
52 33 0 37 -2 33 -23z m58 -10 c-13 -13 -26 -3 -16 12 3 6 11 8 17 5 6 -4 6
-10 -1 -17z m-167 -64 c-4 -10 -10 -42 -12 -70 -3 -44 -1 -53 12 -53 9 0 16 8
16 20 0 22 20 26 38 8 32 -32 -7 -118 -52 -118 -66 0 -95 150 -41 210 23 26
50 27 39 3z m121 11 c20 -8 45 -56 45 -87 0 -21 -4 -23 -31 -19 -18 3 -40 13
-50 23 -11 11 -28 19 -39 19 -11 0 -20 7 -20 15 0 37 53 65 95 49z m32 -154
c2 -8 -1 -22 -7 -30 -8 -13 -11 -13 -26 2 -10 9 -14 24 -10 33 7 20 40 16 43
-5z"/>
<path d="M3363 1296 c-48 -22 -72 -76 -33 -76 11 0 20 5 20 10 0 21 41 50 70
50 33 0 79 -20 98 -43 19 -23 30 -103 21 -154 -12 -63 -53 -103 -108 -103 -52
0 -91 31 -91 74 0 45 16 56 83 56 l60 0 -6 38 c-8 45 -38 72 -81 72 -49 0 -73
-23 -81 -77 -14 -103 -11 -131 16 -159 35 -34 119 -43 168 -17 57 30 74 62 78
150 5 87 -11 131 -59 166 -34 25 -113 32 -155 13z m67 -127 c15 -27 10 -31
-39 -27 -41 3 -41 3 -26 26 20 28 51 28 65 1z"/>
<path d="M4592 1290 c-7 -11 -38 -33 -69 -48 -31 -15 -65 -39 -76 -54 -25 -34
-34 -132 -15 -167 47 -87 191 -92 235 -7 24 46 23 138 -3 172 -11 15 -29 32
-40 38 -10 6 -21 12 -23 14 -3 1 5 11 17 22 12 12 22 27 22 35 0 22 -33 18
-48 -5z m9 -90 c28 -15 49 -63 49 -111 0 -33 -6 -47 -34 -75 -35 -35 -62 -42
-99 -23 -40 21 -57 51 -57 105 0 44 5 57 29 83 31 33 74 41 112 21z"/>
<path d="M2190 1223 c-97 -50 -109 -240 -19 -306 36 -26 97 -32 141 -14 41 17
65 48 74 95 5 25 3 32 -10 32 -13 0 -14 5 -6 26 20 51 12 111 -18 145 -36 40
-108 50 -162 22z m124 -38 c20 -19 26 -33 26 -67 0 -81 -56 -116 -89 -57 -21
38 -9 59 34 59 24 0 35 4 35 15 0 12 -14 15 -65 15 -51 0 -65 -3 -65 -15 0 -8
5 -15 10 -15 6 0 10 -16 10 -36 0 -19 5 -44 10 -54 13 -24 74 -36 106 -21 29
13 31 2 7 -39 -33 -56 -96 -65 -145 -21 -28 24 -32 36 -36 90 -5 72 8 111 50
146 38 32 78 32 112 0z"/>
<path d="M2647 1222 c-20 -22 -23 -92 -4 -92 6 0 2 -8 -11 -18 -21 -16 -22
-21 -14 -81 5 -34 15 -67 23 -71 7 -5 64 -8 126 -7 102 2 115 5 136 25 19 20
22 33 22 112 0 83 -2 91 -26 116 -31 31 -103 43 -139 24 -16 -9 -25 -9 -33 -1
-17 17 -62 13 -80 -7z m59 -23 c7 -12 -32 -57 -41 -47 -8 8 13 58 24 58 5 0
13 -5 17 -11z m145 1 c50 -27 66 -154 24 -200 -28 -31 -34 -24 -29 33 7 72
-17 118 -70 133 l-40 10 24 17 c28 19 62 22 91 7z m-57 -82 c20 -28 21 -98 2
-124 -22 -28 -50 -7 -54 40 -4 44 -32 51 -32 8 0 -16 -6 -37 -14 -47 -12 -16
-16 -17 -30 -6 -26 22 -14 95 20 125 37 33 87 34 108 4z"/>
<path d="M2940 1225 c0 -9 9 -15 23 -15 13 0 34 -11 47 -25 19 -20 23 -36 23
-85 0 -71 -24 -113 -66 -118 -34 -4 -36 -32 -2 -32 69 0 105 51 105 150 0 71
-20 117 -56 130 -38 15 -74 12 -74 -5z"/>
<path d="M3607 1222 c-21 -23 -23 -82 -3 -82 7 0 17 15 22 33 13 43 38 42 42
-1 3 -27 -4 -41 -37 -77 -37 -40 -41 -50 -41 -95 0 -50 12 -64 37 -39 8 8 17
8 31 0 26 -14 72 -14 107 -1 47 18 71 113 39 158 -8 12 -10 22 -5 22 16 0 13
53 -5 78 -17 25 -56 29 -77 7 -13 -13 -16 -13 -27 0 -17 21 -64 19 -83 -3z
m163 -31 c16 -31 12 -41 -15 -41 -25 0 -31 13 -19 44 8 21 21 20 34 -3z m-2
-83 c20 -20 15 -92 -8 -113 -18 -16 -25 -16 -80 -4 -53 12 -59 15 -54 34 3 11
22 37 42 58 37 38 77 48 100 25z"/>
<path d="M3830 1225 c0 -9 9 -15 23 -15 13 0 34 -11 47 -25 19 -20 23 -36 23
-85 0 -71 -24 -113 -66 -118 -34 -4 -36 -32 -2 -32 69 0 105 51 105 150 0 71
-20 117 -56 130 -38 15 -74 12 -74 -5z"/>
<path d="M4012 1224 c-15 -10 -23 -26 -23 -47 0 -18 -2 -56 -5 -85 -8 -72 8
-106 57 -126 69 -28 141 -15 184 34 22 24 25 94 9 180 -7 36 -14 46 -37 54
-18 7 -37 7 -55 0 -15 -6 -37 -7 -47 -3 -32 12 -59 10 -83 -7z m66 -26 c19
-19 14 -28 -18 -28 -18 0 -30 5 -30 13 0 28 27 36 48 15z m120 -11 c3 -13 -3
-17 -27 -17 -33 0 -39 8 -19 28 17 17 42 11 46 -11z m0 -59 c7 -7 12 -29 12
-51 0 -75 -80 -120 -153 -86 -45 20 -62 96 -30 131 13 14 31 18 88 18 42 0 76
-5 83 -12z"/>
<path d="M4260 1225 c0 -9 9 -15 23 -15 13 0 34 -11 47 -25 19 -20 23 -36 23
-85 0 -71 -24 -113 -66 -118 -34 -4 -36 -32 -2 -32 69 0 105 51 105 150 0 71
-20 117 -56 130 -38 15 -74 12 -74 -5z"/>
<path d="M2439 1181 c-25 -25 -29 -37 -29 -81 0 -44 4 -56 29 -81 51 -50 118
-33 141 37 37 111 -65 201 -141 125z m85 -17 c43 -43 22 -144 -29 -144 -21 0
-48 47 -48 80 0 33 27 80 48 80 7 0 21 -7 29 -16z"/>
<path d="M1598 790 c-50 -39 -30 -82 47 -101 54 -14 73 -32 55 -54 -24 -29
-100 -9 -100 26 0 5 -7 9 -15 9 -22 0 -19 -36 5 -60 25 -25 95 -27 128 -4 25
17 30 65 8 83 -7 6 -37 18 -65 27 -56 16 -66 37 -26 56 19 9 29 7 50 -6 14
-10 33 -16 42 -14 13 3 13 6 -3 26 -28 34 -91 40 -126 12z"/>
<path d="M1780 700 c0 -89 3 -110 14 -110 11 0 16 14 18 48 3 43 5 47 28 47
18 0 34 -13 60 -47 19 -27 43 -48 52 -48 24 0 22 8 -11 54 l-27 39 23 23 c28
28 29 58 3 84 -16 16 -33 20 -90 20 l-70 0 0 -110z m130 65 c23 -28 4 -45 -50
-45 -46 0 -50 2 -50 23 0 13 3 27 7 30 12 13 81 7 93 -8z"/>
<path d="M2000 700 c0 -103 1 -110 20 -110 19 0 20 7 20 110 0 103 -1 110 -20
110 -19 0 -20 -7 -20 -110z"/>
<path d="M2090 700 l0 -110 70 0 c56 0 70 3 70 15 0 11 -12 15 -50 15 l-50 0
0 95 c0 88 -1 95 -20 95 -19 0 -20 -7 -20 -110z"/>
<path d="M2308 768 c-9 -24 -27 -73 -41 -110 -25 -64 -25 -68 -7 -68 12 0 22
12 30 35 11 32 15 35 51 35 36 0 41 -3 55 -35 9 -23 21 -35 34 -35 17 0 15 10
-25 106 -25 59 -45 109 -45 110 0 2 -8 4 -18 4 -12 0 -23 -14 -34 -42z m40
-76 c-28 -5 -33 4 -18 35 l13 28 12 -30 c12 -27 12 -30 -7 -33z"/>
<path d="M2470 700 c0 -90 3 -110 15 -110 11 0 15 18 17 77 l3 77 50 -77 c73
-111 85 -107 85 33 0 90 -3 110 -15 110 -11 0 -15 -18 -17 -77 l-3 -77 -50 77
c-73 111 -85 107 -85 -33z"/>
<path d="M2700 700 c0 -91 3 -110 15 -110 11 0 15 11 15 39 0 64 21 68 63 11
34 -46 41 -50 78 -50 36 0 41 3 55 35 13 32 18 35 53 35 36 0 40 -3 51 -35 8
-24 18 -35 31 -35 10 0 19 3 19 8 -2 27 -88 207 -102 210 -11 2 -26 -25 -58
-103 -23 -58 -44 -105 -46 -105 -1 0 -23 26 -48 58 l-45 59 47 46 c44 44 45
47 22 47 -16 0 -41 -17 -72 -47 l-48 -47 0 47 c0 35 -4 47 -15 47 -12 0 -15
-19 -15 -110z m295 13 c5 -20 3 -23 -19 -23 -24 0 -24 2 -14 31 11 32 21 29
33 -8z"/>
<path d="M3180 700 l0 -110 61 0 c81 0 99 11 99 58 0 21 -5 43 -11 49 -8 8 -8
17 0 31 15 29 14 39 -9 62 -16 16 -33 20 -80 20 l-60 0 0 -110z m108 71 c8 -5
12 -17 10 -27 -2 -14 -13 -20 -46 -22 -39 -3 -42 -1 -42 21 0 13 3 27 7 30 9
10 55 8 71 -2z m8 -95 c30 -23 7 -50 -45 -54 -39 -3 -41 -2 -41 26 0 16 3 32
7 35 11 12 59 7 79 -7z"/>
<path d="M3390 717 c0 -111 10 -127 81 -127 74 0 89 24 89 139 0 65 -3 81 -15
81 -12 0 -15 -15 -15 -73 0 -85 -16 -117 -59 -117 -43 0 -51 16 -51 107 0 67
-3 83 -15 83 -12 0 -15 -17 -15 -93z"/>
<path d="M3628 790 c-50 -39 -30 -82 47 -101 54 -14 73 -32 55 -54 -24 -29
-100 -9 -100 26 0 5 -7 9 -15 9 -22 0 -19 -36 5 -60 25 -25 95 -27 128 -4 25
17 30 65 8 83 -7 6 -37 18 -65 27 -56 16 -66 37 -26 56 19 9 29 7 50 -6 14
-10 33 -16 42 -14 13 3 13 6 -3 26 -28 34 -91 40 -126 12z"/>
<path d="M3810 700 c0 -103 1 -110 20 -110 19 0 20 7 20 110 0 103 -1 110 -20
110 -19 0 -20 -7 -20 -110z"/>
<path d="M3900 700 c0 -90 3 -110 15 -110 11 0 15 18 17 77 l3 77 50 -77 c73
-111 85 -107 85 33 0 90 -3 110 -15 110 -11 0 -15 -18 -17 -77 l-3 -77 -50 77
c-73 111 -85 107 -85 -33z"/>
<path d="M4130 700 l0 -110 80 0 c64 0 80 3 80 15 0 12 -14 15 -65 15 l-65 0
0 35 0 35 60 0 c47 0 60 3 60 15 0 12 -13 15 -60 15 l-60 0 0 30 0 30 65 0
c51 0 65 3 65 15 0 12 -16 15 -80 15 l-80 0 0 -110z"/>
<path d="M4360 797 c-28 -14 -39 -59 -20 -82 6 -7 34 -19 61 -25 54 -13 69
-31 49 -55 -20 -24 -67 -19 -86 10 -18 27 -44 34 -44 11 0 -7 9 -25 21 -40 17
-21 29 -26 67 -26 53 0 64 5 81 37 19 37 -1 70 -51 83 -78 19 -97 42 -53 62
22 10 32 9 61 -7 37 -20 48 -17 38 9 -13 34 -79 46 -124 23z"/>
<path d="M4558 790 c-50 -39 -30 -82 47 -101 54 -14 73 -32 55 -54 -24 -29
-100 -9 -100 26 0 5 -7 9 -15 9 -22 0 -19 -36 5 -60 25 -25 95 -27 128 -4 25
17 30 65 8 83 -7 6 -37 18 -65 27 -56 16 -66 37 -26 56 19 9 29 7 50 -6 14
-10 33 -16 42 -14 13 3 13 6 -3 26 -28 34 -91 40 -126 12z"/>
<path d="M1195 665 c-43 -45 -77 -68 -120 -86 -60 -24 -61 -24 -457 -24 l-398
0 0 -37 c0 -110 106 -251 225 -299 58 -23 69 -24 315 -23 241 0 258 1 312 22
75 30 147 96 188 174 43 80 52 185 25 272 -10 31 -21 58 -24 59 -3 2 -33 -25
-66 -58z"/>
<path d="M4008 519 c-12 -6 -18 -22 -18 -43 0 -33 -1 -34 -47 -39 -27 -2 -66
0 -88 6 -27 7 -51 7 -70 0 -19 -6 -41 -6 -61 0 -101 31 -194 -72 -138 -151 12
-18 24 -22 52 -20 35 3 37 5 40 40 3 33 0 38 -22 44 -14 3 -33 4 -41 0 -23 -9
-18 18 9 43 29 27 94 35 87 11 -12 -39 -12 -112 -1 -125 19 -23 77 -19 91 6
11 22 8 80 -5 111 -9 20 14 34 38 25 12 -5 12 -11 1 -44 -14 -38 -11 -77 8
-100 16 -22 75 -16 88 8 11 22 8 80 -6 112 -6 16 -4 18 16 15 22 -3 24 -8 27
-75 2 -56 6 -73 17 -73 12 0 15 16 15 75 0 73 1 75 25 75 14 0 25 5 25 10 0 6
-7 10 -15 10 -22 0 -20 56 2 64 35 14 48 -19 51 -129 3 -87 7 -105 19 -105 14
0 15 16 11 117 -5 97 -9 119 -24 130 -21 15 -62 17 -86 2z m-230 -189 c-2 -27
-7 -35 -23 -35 -16 0 -21 8 -23 38 -2 21 2 45 9 54 12 13 14 13 26 -4 8 -10
13 -34 11 -53z m120 48 c26 -26 8 -96 -22 -85 -15 6 -20 24 -17 57 5 41 17 50
39 28z m-251 -72 c-4 -9 -11 -16 -17 -16 -17 0 -24 31 -9 41 18 11 34 -5 26
-25z"/>
<path d="M2367 503 c-14 -13 -6 -23 18 -23 16 0 25 6 25 15 0 15 -31 21 -43 8z"/>
<path d="M4577 503 c-14 -13 -6 -23 18 -23 16 0 25 6 25 15 0 15 -31 21 -43 8z"/>
<path d="M1645 476 c-59 -25 -83 -83 -61 -147 11 -32 11 -40 0 -50 -8 -6 -14
-22 -14 -35 0 -30 19 -34 135 -31 l90 2 3 33 c2 21 -2 34 -11 38 -11 4 -13 17
-9 49 4 37 1 47 -21 69 -30 30 -62 33 -95 10 -16 -11 -22 -24 -20 -42 3 -24 7
-27 43 -27 34 0 40 3 43 23 4 29 22 18 22 -13 0 -44 -7 -50 -66 -49 -63 0 -76
12 -76 71 0 63 69 105 137 83 54 -18 67 -47 73 -155 2 -52 8 -95 12 -95 12 0
21 96 14 153 -3 28 -13 63 -21 75 -29 46 -116 65 -178 38z m55 -97 c0 -24 -23
-21 -28 4 -2 10 3 17 12 17 10 0 16 -9 16 -21z m20 -103 c0 -20 -38 -30 -56
-15 -12 10 -12 14 -2 20 21 14 58 10 58 -5z m-85 -44 c-21 -5 -40 12 -30 28 5
8 13 6 27 -7 18 -16 19 -18 3 -21z m133 21 c-2 -10 -11 -19 -21 -21 -16 -3
-17 -1 -5 17 16 25 31 27 26 4z"/>
<path d="M1923 426 c-24 -21 -28 -32 -28 -74 0 -27 6 -56 14 -65 19 -24 78
-22 91 2 24 45 -4 87 -52 77 -35 -7 -36 7 -3 39 29 30 39 31 65 5 13 -13 20
-33 20 -61 0 -59 14 -79 55 -79 40 0 75 37 75 82 0 40 -27 101 -42 95 -7 -2
-11 -11 -9 -18 25 -86 25 -87 7 -114 -29 -44 -50 -29 -57 40 -5 44 -12 64 -29
77 -31 25 -74 22 -107 -6z m54 -120 c-8 -20 -36 -21 -43 -1 -4 8 0 22 7 31 11
13 14 13 27 0 8 -8 12 -22 9 -30z"/>
<path d="M2852 434 c-37 -15 -52 -41 -52 -89 0 -54 15 -75 53 -75 40 0 57 15
57 52 0 31 -30 53 -62 45 -14 -4 -18 -2 -14 10 3 8 6 16 6 19 0 12 66 35 85
30 22 -6 23 -8 9 -34 -16 -32 -18 -76 -4 -103 13 -23 72 -26 90 -4 11 13 11
87 -1 124 -7 26 30 23 56 -3 29 -29 32 -58 10 -100 -9 -16 -13 -31 -11 -34 11
-10 37 9 46 33 18 47 12 85 -18 114 -26 27 -32 28 -124 28 -55 0 -108 -5 -126
-13z m148 -95 c0 -42 -13 -57 -35 -39 -18 15 -19 38 -5 75 9 23 13 25 25 15 9
-7 15 -29 15 -51z m-123 -33 c-4 -9 -13 -16 -21 -16 -19 0 -29 30 -15 47 11
12 14 12 27 -1 8 -8 12 -22 9 -30z"/>
<path d="M3310 437 c-34 -17 -52 -55 -46 -100 6 -49 21 -67 60 -67 38 0 56 15
56 47 0 27 -33 47 -66 40 -16 -3 -24 0 -24 10 0 19 45 63 65 63 24 0 65 -46
65 -72 0 -13 -7 -36 -15 -52 -8 -15 -15 -30 -15 -32 0 -2 32 -4 70 -4 l70 0 0
85 c0 69 -3 85 -15 85 -12 0 -15 -15 -15 -75 l0 -75 -30 0 c-30 0 -30 1 -24
40 15 91 -57 147 -136 107z m36 -136 c-9 -14 -33 -14 -41 -1 -4 6 -1 18 6 26
11 13 14 13 27 0 8 -8 11 -19 8 -25z"/>
<path d="M4560 430 c-16 -16 -20 -33 -20 -80 l0 -60 -30 0 -30 0 0 75 c0 60
-3 75 -15 75 -12 0 -15 -16 -15 -85 l0 -85 114 0 113 0 7 38 c16 103 -64 182
-124 122z m68 -17 c20 -17 27 -49 24 -100 -2 -20 -8 -23 -42 -23 l-40 0 0 51
c0 50 13 89 29 89 5 0 18 -8 29 -17z"/>
<path d="M2210 355 c0 -69 3 -85 15 -85 12 0 15 15 15 75 0 68 2 75 20 75 18
0 20 -7 20 -55 0 -42 4 -55 15 -55 8 0 17 11 21 24 12 48 58 39 52 -10 -3 -26
-7 -29 -45 -32 -81 -6 -43 -22 52 -22 l95 0 0 85 c0 69 -3 85 -15 85 -12 0
-15 -15 -15 -75 0 -68 -2 -75 -20 -75 -17 0 -20 7 -20 40 0 45 -25 66 -67 55
-20 -5 -24 -2 -21 12 2 13 14 19 46 21 80 6 42 22 -53 22 l-95 0 0 -85z"/>
<path d="M2560 401 c0 -25 -5 -41 -15 -45 -18 -7 -20 -57 -3 -74 7 -7 31 -12
54 -12 45 0 74 24 74 62 0 22 33 24 50 3 18 -21 5 -45 -25 -45 -14 0 -25 -5
-25 -11 0 -16 72 -6 83 12 5 9 7 28 3 42 -5 22 -14 28 -46 33 -34 6 -40 10
-40 30 0 20 5 24 30 24 17 0 30 5 30 10 0 6 -35 10 -85 10 l-85 0 0 -39z m78
-8 c3 -19 -1 -23 -22 -23 -21 0 -26 5 -26 26 0 21 4 25 23 22 14 -2 23 -11 25
-25z m-3 -53 c11 -18 -15 -50 -41 -50 -26 0 -40 20 -30 45 6 17 61 21 71 5z"/>
<path d="M4200 401 c0 -25 -5 -41 -15 -45 -18 -7 -20 -57 -3 -74 7 -7 31 -12
54 -12 45 0 74 24 74 62 0 22 33 24 50 3 18 -21 5 -45 -25 -45 -14 0 -25 -5
-25 -11 0 -16 72 -6 83 12 5 9 7 28 3 42 -5 22 -14 28 -46 33 -34 6 -40 10
-40 30 0 20 5 24 30 24 17 0 30 5 30 10 0 6 -35 10 -85 10 l-85 0 0 -39z m78
-8 c3 -19 -1 -23 -22 -23 -21 0 -26 5 -26 26 0 21 4 25 23 22 14 -2 23 -11 25
-25z m-3 -53 c11 -18 -15 -50 -41 -50 -26 0 -40 20 -30 45 6 17 61 21 71 5z"/>
</g>
</svg>
